<svg width="1480" height="576" viewBox="0 0 1480 576" fill="none" xmlns="http://www.w3.org/2000/svg">
<g clip-path="url(#clip0_121_8)">
<rect width="1480" height="576" fill="url(#paint0_linear_121_8)"/>
<path d="M315 342C315 272.412 371.412 216 441 216H1040C1109.59 216 1166 272.412 1166 342V608H315V342Z" stroke="#FC9595" stroke-width="38"/>
<rect x="502" y="250" width="476" height="76" rx="38" fill="#561914"/>
<rect x="622" y="254" width="235" height="69" rx="34.5" fill="#561914" stroke="#BE362D" stroke-width="2" stroke-dasharray="11 11"/>
<path d="M896.609 303V279.602H896.492L889.207 284.602V279.992L896.57 274.816H901.551V303H896.609ZM918.836 303.488C916.531 303.488 914.552 302.896 912.898 301.711C911.245 300.526 909.975 298.846 909.09 296.672C908.204 294.484 907.762 291.9 907.762 288.918V288.879C907.762 285.897 908.204 283.319 909.09 281.145C909.975 278.957 911.245 277.277 912.898 276.105C914.552 274.921 916.531 274.328 918.836 274.328C921.128 274.328 923.1 274.921 924.754 276.105C926.421 277.277 927.697 278.957 928.582 281.145C929.467 283.319 929.91 285.897 929.91 288.879V288.918C929.91 291.9 929.467 294.484 928.582 296.672C927.697 298.846 926.421 300.526 924.754 301.711C923.1 302.896 921.128 303.488 918.836 303.488ZM918.836 299.367C920.099 299.367 921.18 298.951 922.078 298.117C922.977 297.284 923.66 296.086 924.129 294.523C924.598 292.961 924.832 291.092 924.832 288.918V288.879C924.832 286.704 924.598 284.842 924.129 283.293C923.66 281.73 922.977 280.539 922.078 279.719C921.18 278.885 920.099 278.469 918.836 278.469C917.56 278.469 916.473 278.885 915.574 279.719C914.689 280.539 914.012 281.73 913.543 283.293C913.074 284.842 912.84 286.704 912.84 288.879V288.918C912.84 291.092 913.074 292.961 913.543 294.523C914.012 296.086 914.689 297.284 915.574 298.117C916.473 298.951 917.56 299.367 918.836 299.367Z" fill="#FF918B"/>
<circle cx="572" cy="288" r="31" fill="#FF918B" fill-opacity="0.66"/>
</g>
<defs>
<linearGradient id="paint0_linear_121_8" x1="148.5" y1="153" x2="1438.5" y2="512.5" gradientUnits="userSpaceOnUse">
<stop stop-color="#D64C26"/>
<stop offset="1" stop-color="#CB3D49"/>
</linearGradient>
<clipPath id="clip0_121_8">
<rect width="1480" height="576" fill="white"/>
</clipPath>
</defs>
</svg>
